<mxfile host="app.diagrams.net" modified="2021-03-09T06:02:49.277Z" agent="5.0 (Windows NT 10.0; Win64; x64) AppleWebKit/537.36 (KHTML, like Gecko) Chrome/88.0.4324.190 Safari/537.36" etag="wLXJXeZ8UNW-D7wWtDty" version="14.4.4" type="github" pages="2">
  <diagram id="mEW-Un5fLUDRnqZUkq09" name="leetCode 22">
    <mxGraphModel dx="2062" dy="1155" grid="1" gridSize="10" guides="1" tooltips="1" connect="1" arrows="1" fold="1" page="1" pageScale="1" pageWidth="827" pageHeight="1169" math="0" shadow="0">
      <root>
        <mxCell id="0" />
        <mxCell id="1" parent="0" />
        <mxCell id="DeGqzrqYdOOytYLzk74u-1" value="&#39;&#39;" style="rounded=0;whiteSpace=wrap;html=1;" parent="1" vertex="1">
          <mxGeometry x="350" y="420" width="40" height="20" as="geometry" />
        </mxCell>
        <mxCell id="DeGqzrqYdOOytYLzk74u-2" value="&#39;(&#39;" style="rounded=0;whiteSpace=wrap;html=1;" parent="1" vertex="1">
          <mxGeometry x="350" y="490" width="40" height="20" as="geometry" />
        </mxCell>
        <mxCell id="DeGqzrqYdOOytYLzk74u-3" value="" style="endArrow=none;html=1;entryX=0.5;entryY=1;entryDx=0;entryDy=0;" parent="1" target="DeGqzrqYdOOytYLzk74u-1" edge="1">
          <mxGeometry width="50" height="50" relative="1" as="geometry">
            <mxPoint x="370" y="490" as="sourcePoint" />
            <mxPoint x="420" y="440" as="targetPoint" />
          </mxGeometry>
        </mxCell>
        <mxCell id="DeGqzrqYdOOytYLzk74u-4" value="&#39;((&#39;" style="rounded=0;whiteSpace=wrap;html=1;" parent="1" vertex="1">
          <mxGeometry x="240" y="550" width="40" height="20" as="geometry" />
        </mxCell>
        <mxCell id="DeGqzrqYdOOytYLzk74u-5" value="" style="endArrow=none;html=1;exitX=0.5;exitY=0;exitDx=0;exitDy=0;entryX=0.25;entryY=1;entryDx=0;entryDy=0;" parent="1" source="DeGqzrqYdOOytYLzk74u-4" target="DeGqzrqYdOOytYLzk74u-2" edge="1">
          <mxGeometry width="50" height="50" relative="1" as="geometry">
            <mxPoint x="290" y="560" as="sourcePoint" />
            <mxPoint x="330" y="520" as="targetPoint" />
          </mxGeometry>
        </mxCell>
        <mxCell id="DeGqzrqYdOOytYLzk74u-6" value="&#39;()&#39;" style="rounded=0;whiteSpace=wrap;html=1;" parent="1" vertex="1">
          <mxGeometry x="510" y="550" width="40" height="20" as="geometry" />
        </mxCell>
        <mxCell id="DeGqzrqYdOOytYLzk74u-7" value="" style="endArrow=none;html=1;exitX=0.5;exitY=1;exitDx=0;exitDy=0;entryX=0.5;entryY=0;entryDx=0;entryDy=0;" parent="1" source="DeGqzrqYdOOytYLzk74u-2" target="DeGqzrqYdOOytYLzk74u-6" edge="1">
          <mxGeometry width="50" height="50" relative="1" as="geometry">
            <mxPoint x="370" y="550" as="sourcePoint" />
            <mxPoint x="420" y="500" as="targetPoint" />
          </mxGeometry>
        </mxCell>
        <mxCell id="DeGqzrqYdOOytYLzk74u-8" value="&#39;(()&#39;" style="rounded=0;whiteSpace=wrap;html=1;" parent="1" vertex="1">
          <mxGeometry x="300" y="600" width="40" height="20" as="geometry" />
        </mxCell>
        <mxCell id="DeGqzrqYdOOytYLzk74u-11" value="" style="endArrow=none;html=1;exitX=0.5;exitY=0;exitDx=0;exitDy=0;" parent="1" source="DeGqzrqYdOOytYLzk74u-8" edge="1">
          <mxGeometry width="50" height="50" relative="1" as="geometry">
            <mxPoint x="210" y="620" as="sourcePoint" />
            <mxPoint x="260" y="570" as="targetPoint" />
          </mxGeometry>
        </mxCell>
        <mxCell id="DeGqzrqYdOOytYLzk74u-12" value="N = 3" style="text;html=1;align=center;verticalAlign=middle;resizable=0;points=[];autosize=1;" parent="1" vertex="1">
          <mxGeometry x="460" y="440" width="40" height="20" as="geometry" />
        </mxCell>
        <mxCell id="DeGqzrqYdOOytYLzk74u-14" value="&#39;()(&#39;" style="rounded=0;whiteSpace=wrap;html=1;" parent="1" vertex="1">
          <mxGeometry x="510" y="610" width="40" height="20" as="geometry" />
        </mxCell>
        <mxCell id="DeGqzrqYdOOytYLzk74u-15" value="" style="endArrow=none;html=1;entryX=0.5;entryY=1;entryDx=0;entryDy=0;" parent="1" source="DeGqzrqYdOOytYLzk74u-14" target="DeGqzrqYdOOytYLzk74u-6" edge="1">
          <mxGeometry width="50" height="50" relative="1" as="geometry">
            <mxPoint x="510" y="640" as="sourcePoint" />
            <mxPoint x="560" y="590" as="targetPoint" />
          </mxGeometry>
        </mxCell>
        <mxCell id="DeGqzrqYdOOytYLzk74u-16" value="&#39;(())&#39;" style="rounded=0;whiteSpace=wrap;html=1;" parent="1" vertex="1">
          <mxGeometry x="270" y="660" width="40" height="20" as="geometry" />
        </mxCell>
        <mxCell id="DeGqzrqYdOOytYLzk74u-17" value="" style="endArrow=none;html=1;exitX=0.5;exitY=0;exitDx=0;exitDy=0;entryX=0.5;entryY=1;entryDx=0;entryDy=0;" parent="1" source="DeGqzrqYdOOytYLzk74u-16" target="DeGqzrqYdOOytYLzk74u-8" edge="1">
          <mxGeometry width="50" height="50" relative="1" as="geometry">
            <mxPoint x="390" y="640" as="sourcePoint" />
            <mxPoint x="440" y="590" as="targetPoint" />
          </mxGeometry>
        </mxCell>
        <mxCell id="DeGqzrqYdOOytYLzk74u-18" value="&#39;()()&#39;" style="rounded=0;whiteSpace=wrap;html=1;" parent="1" vertex="1">
          <mxGeometry x="480" y="660" width="40" height="20" as="geometry" />
        </mxCell>
        <mxCell id="DeGqzrqYdOOytYLzk74u-19" value="" style="endArrow=none;html=1;exitX=0.5;exitY=0;exitDx=0;exitDy=0;entryX=0.5;entryY=1;entryDx=0;entryDy=0;" parent="1" source="DeGqzrqYdOOytYLzk74u-18" target="DeGqzrqYdOOytYLzk74u-14" edge="1">
          <mxGeometry width="50" height="50" relative="1" as="geometry">
            <mxPoint x="510" y="640" as="sourcePoint" />
            <mxPoint x="560" y="590" as="targetPoint" />
          </mxGeometry>
        </mxCell>
        <mxCell id="DeGqzrqYdOOytYLzk74u-20" value="&#39;(((&#39;" style="rounded=0;whiteSpace=wrap;html=1;" parent="1" vertex="1">
          <mxGeometry x="190" y="600" width="40" height="20" as="geometry" />
        </mxCell>
        <mxCell id="DeGqzrqYdOOytYLzk74u-21" value="" style="endArrow=none;html=1;exitX=0.5;exitY=0;exitDx=0;exitDy=0;" parent="1" source="DeGqzrqYdOOytYLzk74u-20" edge="1">
          <mxGeometry width="50" height="50" relative="1" as="geometry">
            <mxPoint x="390" y="640" as="sourcePoint" />
            <mxPoint x="260" y="570" as="targetPoint" />
          </mxGeometry>
        </mxCell>
        <mxCell id="DeGqzrqYdOOytYLzk74u-22" value="&#39;((()&#39;" style="rounded=0;whiteSpace=wrap;html=1;" parent="1" vertex="1">
          <mxGeometry x="190" y="660" width="40" height="20" as="geometry" />
        </mxCell>
        <mxCell id="DeGqzrqYdOOytYLzk74u-23" value="" style="endArrow=none;html=1;exitX=0.5;exitY=0;exitDx=0;exitDy=0;entryX=0.5;entryY=1;entryDx=0;entryDy=0;" parent="1" source="DeGqzrqYdOOytYLzk74u-22" target="DeGqzrqYdOOytYLzk74u-20" edge="1">
          <mxGeometry width="50" height="50" relative="1" as="geometry">
            <mxPoint x="390" y="640" as="sourcePoint" />
            <mxPoint x="440" y="590" as="targetPoint" />
          </mxGeometry>
        </mxCell>
        <mxCell id="DeGqzrqYdOOytYLzk74u-24" value="&#39;((())&#39;" style="rounded=0;whiteSpace=wrap;html=1;" parent="1" vertex="1">
          <mxGeometry x="190" y="710" width="40" height="20" as="geometry" />
        </mxCell>
        <mxCell id="DeGqzrqYdOOytYLzk74u-25" value="" style="endArrow=none;html=1;exitX=0.5;exitY=0;exitDx=0;exitDy=0;entryX=0.5;entryY=1;entryDx=0;entryDy=0;" parent="1" source="DeGqzrqYdOOytYLzk74u-24" target="DeGqzrqYdOOytYLzk74u-22" edge="1">
          <mxGeometry width="50" height="50" relative="1" as="geometry">
            <mxPoint x="390" y="640" as="sourcePoint" />
            <mxPoint x="440" y="590" as="targetPoint" />
          </mxGeometry>
        </mxCell>
        <mxCell id="DeGqzrqYdOOytYLzk74u-26" value="&#39;((()))&#39;" style="rounded=0;whiteSpace=wrap;html=1;" parent="1" vertex="1">
          <mxGeometry x="190" y="760" width="40" height="20" as="geometry" />
        </mxCell>
        <mxCell id="DeGqzrqYdOOytYLzk74u-27" value="" style="endArrow=none;html=1;exitX=0.5;exitY=0;exitDx=0;exitDy=0;entryX=0.5;entryY=1;entryDx=0;entryDy=0;" parent="1" source="DeGqzrqYdOOytYLzk74u-26" target="DeGqzrqYdOOytYLzk74u-24" edge="1">
          <mxGeometry width="50" height="50" relative="1" as="geometry">
            <mxPoint x="206" y="761" as="sourcePoint" />
            <mxPoint x="440" y="590" as="targetPoint" />
          </mxGeometry>
        </mxCell>
        <mxCell id="DeGqzrqYdOOytYLzk74u-28" value="&#39;(())(&#39;" style="rounded=0;whiteSpace=wrap;html=1;" parent="1" vertex="1">
          <mxGeometry x="270" y="710" width="40" height="20" as="geometry" />
        </mxCell>
        <mxCell id="DeGqzrqYdOOytYLzk74u-29" value="&#39;(())()&#39;" style="rounded=0;whiteSpace=wrap;html=1;" parent="1" vertex="1">
          <mxGeometry x="270" y="760" width="40" height="20" as="geometry" />
        </mxCell>
        <mxCell id="DeGqzrqYdOOytYLzk74u-30" value="&#39;(()(&#39;" style="rounded=0;whiteSpace=wrap;html=1;" parent="1" vertex="1">
          <mxGeometry x="350" y="660" width="40" height="20" as="geometry" />
        </mxCell>
        <mxCell id="DeGqzrqYdOOytYLzk74u-31" value="" style="endArrow=none;html=1;entryX=0.5;entryY=1;entryDx=0;entryDy=0;" parent="1" target="DeGqzrqYdOOytYLzk74u-16" edge="1">
          <mxGeometry width="50" height="50" relative="1" as="geometry">
            <mxPoint x="290" y="710" as="sourcePoint" />
            <mxPoint x="330" y="670" as="targetPoint" />
          </mxGeometry>
        </mxCell>
        <mxCell id="DeGqzrqYdOOytYLzk74u-32" value="" style="endArrow=none;html=1;exitX=0.5;exitY=0;exitDx=0;exitDy=0;" parent="1" source="DeGqzrqYdOOytYLzk74u-30" edge="1">
          <mxGeometry width="50" height="50" relative="1" as="geometry">
            <mxPoint x="390" y="640" as="sourcePoint" />
            <mxPoint x="320" y="620" as="targetPoint" />
          </mxGeometry>
        </mxCell>
        <mxCell id="DeGqzrqYdOOytYLzk74u-33" value="&#39;(()()&#39;" style="rounded=0;whiteSpace=wrap;html=1;" parent="1" vertex="1">
          <mxGeometry x="350" y="710" width="40" height="20" as="geometry" />
        </mxCell>
        <mxCell id="DeGqzrqYdOOytYLzk74u-34" value="&#39;(()())&#39;" style="rounded=0;whiteSpace=wrap;html=1;" parent="1" vertex="1">
          <mxGeometry x="350" y="760" width="40" height="20" as="geometry" />
        </mxCell>
        <mxCell id="DeGqzrqYdOOytYLzk74u-35" value="" style="endArrow=none;html=1;entryX=0.5;entryY=1;entryDx=0;entryDy=0;" parent="1" target="DeGqzrqYdOOytYLzk74u-30" edge="1">
          <mxGeometry width="50" height="50" relative="1" as="geometry">
            <mxPoint x="370" y="710" as="sourcePoint" />
            <mxPoint x="410" y="660" as="targetPoint" />
          </mxGeometry>
        </mxCell>
        <mxCell id="DeGqzrqYdOOytYLzk74u-38" value="" style="endArrow=none;html=1;exitX=0.5;exitY=0;exitDx=0;exitDy=0;entryX=0.5;entryY=1;entryDx=0;entryDy=0;" parent="1" source="DeGqzrqYdOOytYLzk74u-34" target="DeGqzrqYdOOytYLzk74u-33" edge="1">
          <mxGeometry width="50" height="50" relative="1" as="geometry">
            <mxPoint x="414" y="690" as="sourcePoint" />
            <mxPoint x="454" y="650" as="targetPoint" />
          </mxGeometry>
        </mxCell>
        <mxCell id="DeGqzrqYdOOytYLzk74u-39" value="" style="endArrow=none;html=1;entryX=0.5;entryY=1;entryDx=0;entryDy=0;" parent="1" target="DeGqzrqYdOOytYLzk74u-28" edge="1">
          <mxGeometry width="50" height="50" relative="1" as="geometry">
            <mxPoint x="290" y="760" as="sourcePoint" />
            <mxPoint x="330" y="720" as="targetPoint" />
          </mxGeometry>
        </mxCell>
        <mxCell id="DeGqzrqYdOOytYLzk74u-40" value="&#39;()((&#39;" style="rounded=0;whiteSpace=wrap;html=1;" parent="1" vertex="1">
          <mxGeometry x="560" y="660" width="40" height="20" as="geometry" />
        </mxCell>
        <mxCell id="DeGqzrqYdOOytYLzk74u-41" value="&#39;()()(&#39;" style="rounded=0;whiteSpace=wrap;html=1;" parent="1" vertex="1">
          <mxGeometry x="480" y="710" width="40" height="20" as="geometry" />
        </mxCell>
        <mxCell id="DeGqzrqYdOOytYLzk74u-42" value="&#39;()()()&#39;" style="rounded=0;whiteSpace=wrap;html=1;" parent="1" vertex="1">
          <mxGeometry x="480" y="760" width="40" height="20" as="geometry" />
        </mxCell>
        <mxCell id="DeGqzrqYdOOytYLzk74u-43" value="&#39;()(()&#39;" style="rounded=0;whiteSpace=wrap;html=1;" parent="1" vertex="1">
          <mxGeometry x="560" y="710" width="40" height="20" as="geometry" />
        </mxCell>
        <mxCell id="DeGqzrqYdOOytYLzk74u-44" value="&#39;()(())&#39;" style="rounded=0;whiteSpace=wrap;html=1;" parent="1" vertex="1">
          <mxGeometry x="560" y="760" width="40" height="20" as="geometry" />
        </mxCell>
        <mxCell id="DeGqzrqYdOOytYLzk74u-46" value="" style="endArrow=none;html=1;exitX=0.5;exitY=0;exitDx=0;exitDy=0;entryX=0.5;entryY=1;entryDx=0;entryDy=0;" parent="1" source="DeGqzrqYdOOytYLzk74u-40" target="DeGqzrqYdOOytYLzk74u-14" edge="1">
          <mxGeometry width="50" height="50" relative="1" as="geometry">
            <mxPoint x="390" y="640" as="sourcePoint" />
            <mxPoint x="440" y="590" as="targetPoint" />
          </mxGeometry>
        </mxCell>
        <mxCell id="DeGqzrqYdOOytYLzk74u-47" value="" style="endArrow=none;html=1;exitX=0.5;exitY=0;exitDx=0;exitDy=0;entryX=0.5;entryY=1;entryDx=0;entryDy=0;" parent="1" source="DeGqzrqYdOOytYLzk74u-41" target="DeGqzrqYdOOytYLzk74u-18" edge="1">
          <mxGeometry width="50" height="50" relative="1" as="geometry">
            <mxPoint x="390" y="640" as="sourcePoint" />
            <mxPoint x="440" y="590" as="targetPoint" />
          </mxGeometry>
        </mxCell>
        <mxCell id="DeGqzrqYdOOytYLzk74u-48" value="" style="endArrow=none;html=1;exitX=0.5;exitY=0;exitDx=0;exitDy=0;entryX=0.5;entryY=1;entryDx=0;entryDy=0;" parent="1" source="DeGqzrqYdOOytYLzk74u-42" target="DeGqzrqYdOOytYLzk74u-41" edge="1">
          <mxGeometry width="50" height="50" relative="1" as="geometry">
            <mxPoint x="390" y="640" as="sourcePoint" />
            <mxPoint x="440" y="590" as="targetPoint" />
          </mxGeometry>
        </mxCell>
        <mxCell id="DeGqzrqYdOOytYLzk74u-49" value="" style="endArrow=none;html=1;exitX=0.5;exitY=0;exitDx=0;exitDy=0;entryX=0.5;entryY=1;entryDx=0;entryDy=0;" parent="1" source="DeGqzrqYdOOytYLzk74u-43" target="DeGqzrqYdOOytYLzk74u-40" edge="1">
          <mxGeometry width="50" height="50" relative="1" as="geometry">
            <mxPoint x="510" y="720" as="sourcePoint" />
            <mxPoint x="510" y="690" as="targetPoint" />
            <Array as="points" />
          </mxGeometry>
        </mxCell>
        <mxCell id="DeGqzrqYdOOytYLzk74u-50" value="" style="endArrow=none;html=1;exitX=0.5;exitY=0;exitDx=0;exitDy=0;entryX=0.5;entryY=1;entryDx=0;entryDy=0;" parent="1" edge="1">
          <mxGeometry width="50" height="50" relative="1" as="geometry">
            <mxPoint x="579.71" y="760" as="sourcePoint" />
            <mxPoint x="579.71" y="730" as="targetPoint" />
            <Array as="points" />
          </mxGeometry>
        </mxCell>
        <mxCell id="DeGqzrqYdOOytYLzk74u-60" value="0" style="text;html=1;align=center;verticalAlign=middle;resizable=0;points=[];autosize=1;" parent="1" vertex="1">
          <mxGeometry x="390" y="420" width="20" height="20" as="geometry" />
        </mxCell>
        <mxCell id="DeGqzrqYdOOytYLzk74u-61" value="1" style="text;html=1;align=center;verticalAlign=middle;resizable=0;points=[];autosize=1;" parent="1" vertex="1">
          <mxGeometry x="390" y="490" width="20" height="20" as="geometry" />
        </mxCell>
        <mxCell id="DeGqzrqYdOOytYLzk74u-62" value="2" style="text;html=1;align=center;verticalAlign=middle;resizable=0;points=[];autosize=1;" parent="1" vertex="1">
          <mxGeometry x="280" y="550" width="20" height="20" as="geometry" />
        </mxCell>
        <mxCell id="DeGqzrqYdOOytYLzk74u-63" value="3" style="text;html=1;align=center;verticalAlign=middle;resizable=0;points=[];autosize=1;" parent="1" vertex="1">
          <mxGeometry x="240" y="600" width="20" height="20" as="geometry" />
        </mxCell>
        <mxCell id="DeGqzrqYdOOytYLzk74u-64" value="1" style="text;html=1;align=center;verticalAlign=middle;resizable=0;points=[];autosize=1;" parent="1" vertex="1">
          <mxGeometry x="340" y="600" width="20" height="20" as="geometry" />
        </mxCell>
        <mxCell id="DeGqzrqYdOOytYLzk74u-65" value="0" style="text;html=1;align=center;verticalAlign=middle;resizable=0;points=[];autosize=1;" parent="1" vertex="1">
          <mxGeometry x="550" y="550" width="20" height="20" as="geometry" />
        </mxCell>
        <mxCell id="DeGqzrqYdOOytYLzk74u-66" value="1" style="text;html=1;align=center;verticalAlign=middle;resizable=0;points=[];autosize=1;" parent="1" vertex="1">
          <mxGeometry x="560" y="610" width="20" height="20" as="geometry" />
        </mxCell>
        <mxCell id="DeGqzrqYdOOytYLzk74u-67" value="2" style="text;html=1;align=center;verticalAlign=middle;resizable=0;points=[];autosize=1;" parent="1" vertex="1">
          <mxGeometry x="230" y="660" width="20" height="20" as="geometry" />
        </mxCell>
        <mxCell id="DeGqzrqYdOOytYLzk74u-68" value="1" style="text;html=1;align=center;verticalAlign=middle;resizable=0;points=[];autosize=1;" parent="1" vertex="1">
          <mxGeometry x="230" y="710" width="20" height="20" as="geometry" />
        </mxCell>
        <mxCell id="DeGqzrqYdOOytYLzk74u-69" value="0" style="text;html=1;align=center;verticalAlign=middle;resizable=0;points=[];autosize=1;" parent="1" vertex="1">
          <mxGeometry x="230" y="760" width="20" height="20" as="geometry" />
        </mxCell>
        <mxCell id="DeGqzrqYdOOytYLzk74u-70" value="0" style="text;html=1;align=center;verticalAlign=middle;resizable=0;points=[];autosize=1;" parent="1" vertex="1">
          <mxGeometry x="520" y="660" width="20" height="20" as="geometry" />
        </mxCell>
        <mxCell id="DeGqzrqYdOOytYLzk74u-71" value="2" style="text;html=1;align=center;verticalAlign=middle;resizable=0;points=[];autosize=1;" parent="1" vertex="1">
          <mxGeometry x="600" y="660" width="20" height="20" as="geometry" />
        </mxCell>
        <mxCell id="DeGqzrqYdOOytYLzk74u-72" value="1" style="text;html=1;align=center;verticalAlign=middle;resizable=0;points=[];autosize=1;" parent="1" vertex="1">
          <mxGeometry x="520" y="710" width="20" height="20" as="geometry" />
        </mxCell>
        <mxCell id="DeGqzrqYdOOytYLzk74u-73" value="1" style="text;html=1;align=center;verticalAlign=middle;resizable=0;points=[];autosize=1;" parent="1" vertex="1">
          <mxGeometry x="600" y="710" width="20" height="20" as="geometry" />
        </mxCell>
        <mxCell id="DeGqzrqYdOOytYLzk74u-74" value="0" style="text;html=1;align=center;verticalAlign=middle;resizable=0;points=[];autosize=1;" parent="1" vertex="1">
          <mxGeometry x="520" y="760" width="20" height="20" as="geometry" />
        </mxCell>
        <mxCell id="DeGqzrqYdOOytYLzk74u-75" value="0" style="text;html=1;align=center;verticalAlign=middle;resizable=0;points=[];autosize=1;" parent="1" vertex="1">
          <mxGeometry x="600" y="760" width="20" height="20" as="geometry" />
        </mxCell>
      </root>
    </mxGraphModel>
  </diagram>
  <diagram id="tFv-wcidqzR_e1jSY6Yq" name="leetCode 47 permutation II">
    <mxGraphModel dx="1422" dy="797" grid="1" gridSize="10" guides="1" tooltips="1" connect="1" arrows="1" fold="1" page="1" pageScale="1" pageWidth="827" pageHeight="1169" math="0" shadow="0">
      <root>
        <mxCell id="U_qrTc23MfGuJ5eS-XRB-0" />
        <mxCell id="U_qrTc23MfGuJ5eS-XRB-1" parent="U_qrTc23MfGuJ5eS-XRB-0" />
        <mxCell id="U_qrTc23MfGuJ5eS-XRB-2" value="[]" style="whiteSpace=wrap;html=1;" vertex="1" parent="U_qrTc23MfGuJ5eS-XRB-1">
          <mxGeometry x="390" y="330" width="60" height="30" as="geometry" />
        </mxCell>
        <mxCell id="U_qrTc23MfGuJ5eS-XRB-9" value="" style="endArrow=none;html=1;exitX=0.5;exitY=0;exitDx=0;exitDy=0;" edge="1" parent="U_qrTc23MfGuJ5eS-XRB-1" source="U_qrTc23MfGuJ5eS-XRB-12">
          <mxGeometry width="50" height="50" relative="1" as="geometry">
            <mxPoint x="320" y="400" as="sourcePoint" />
            <mxPoint x="420" y="360" as="targetPoint" />
          </mxGeometry>
        </mxCell>
        <mxCell id="U_qrTc23MfGuJ5eS-XRB-10" value="" style="endArrow=none;html=1;entryX=0.5;entryY=1;entryDx=0;entryDy=0;exitX=0.5;exitY=0;exitDx=0;exitDy=0;" edge="1" parent="U_qrTc23MfGuJ5eS-XRB-1" source="U_qrTc23MfGuJ5eS-XRB-13" target="U_qrTc23MfGuJ5eS-XRB-2">
          <mxGeometry width="50" height="50" relative="1" as="geometry">
            <mxPoint x="520" y="400" as="sourcePoint" />
            <mxPoint x="400" y="510" as="targetPoint" />
          </mxGeometry>
        </mxCell>
        <mxCell id="U_qrTc23MfGuJ5eS-XRB-12" value="[1]" style="whiteSpace=wrap;html=1;" vertex="1" parent="U_qrTc23MfGuJ5eS-XRB-1">
          <mxGeometry x="220" y="400" width="60" height="30" as="geometry" />
        </mxCell>
        <mxCell id="U_qrTc23MfGuJ5eS-XRB-13" value="[2]" style="whiteSpace=wrap;html=1;" vertex="1" parent="U_qrTc23MfGuJ5eS-XRB-1">
          <mxGeometry x="590" y="400" width="60" height="30" as="geometry" />
        </mxCell>
        <mxCell id="U_qrTc23MfGuJ5eS-XRB-14" value="[1, 1, 2]" style="text;html=1;align=center;verticalAlign=middle;resizable=0;points=[];autosize=1;" vertex="1" parent="U_qrTc23MfGuJ5eS-XRB-1">
          <mxGeometry x="560" y="300" width="60" height="20" as="geometry" />
        </mxCell>
        <mxCell id="U_qrTc23MfGuJ5eS-XRB-15" value="[1]" style="whiteSpace=wrap;html=1;" vertex="1" parent="U_qrTc23MfGuJ5eS-XRB-1">
          <mxGeometry x="390" y="400" width="60" height="30" as="geometry" />
        </mxCell>
        <mxCell id="U_qrTc23MfGuJ5eS-XRB-17" value="" style="endArrow=none;html=1;" edge="1" parent="U_qrTc23MfGuJ5eS-XRB-1" source="U_qrTc23MfGuJ5eS-XRB-15">
          <mxGeometry width="50" height="50" relative="1" as="geometry">
            <mxPoint x="350" y="560" as="sourcePoint" />
            <mxPoint x="420" y="360" as="targetPoint" />
          </mxGeometry>
        </mxCell>
        <mxCell id="U_qrTc23MfGuJ5eS-XRB-18" value="x" style="text;html=1;align=center;verticalAlign=middle;resizable=0;points=[];autosize=1;" vertex="1" parent="U_qrTc23MfGuJ5eS-XRB-1">
          <mxGeometry x="420" y="370" width="20" height="20" as="geometry" />
        </mxCell>
        <mxCell id="U_qrTc23MfGuJ5eS-XRB-19" value="[1, 2]" style="text;html=1;align=center;verticalAlign=middle;resizable=0;points=[];autosize=1;" vertex="1" parent="U_qrTc23MfGuJ5eS-XRB-1">
          <mxGeometry x="460" y="335" width="40" height="20" as="geometry" />
        </mxCell>
        <mxCell id="U_qrTc23MfGuJ5eS-XRB-20" value="[1, 1]" style="whiteSpace=wrap;html=1;" vertex="1" parent="U_qrTc23MfGuJ5eS-XRB-1">
          <mxGeometry x="150" y="480" width="60" height="30" as="geometry" />
        </mxCell>
        <mxCell id="U_qrTc23MfGuJ5eS-XRB-21" value="[1, 2]" style="whiteSpace=wrap;html=1;" vertex="1" parent="U_qrTc23MfGuJ5eS-XRB-1">
          <mxGeometry x="290" y="480" width="60" height="30" as="geometry" />
        </mxCell>
        <mxCell id="U_qrTc23MfGuJ5eS-XRB-22" value="" style="endArrow=none;html=1;entryX=0.5;entryY=1;entryDx=0;entryDy=0;exitX=0.5;exitY=0;exitDx=0;exitDy=0;" edge="1" parent="U_qrTc23MfGuJ5eS-XRB-1" source="U_qrTc23MfGuJ5eS-XRB-20" target="U_qrTc23MfGuJ5eS-XRB-12">
          <mxGeometry width="50" height="50" relative="1" as="geometry">
            <mxPoint x="350" y="560" as="sourcePoint" />
            <mxPoint x="400" y="510" as="targetPoint" />
          </mxGeometry>
        </mxCell>
        <mxCell id="U_qrTc23MfGuJ5eS-XRB-23" value="" style="endArrow=none;html=1;exitX=0.5;exitY=1;exitDx=0;exitDy=0;entryX=0.5;entryY=0;entryDx=0;entryDy=0;" edge="1" parent="U_qrTc23MfGuJ5eS-XRB-1" source="U_qrTc23MfGuJ5eS-XRB-12" target="U_qrTc23MfGuJ5eS-XRB-21">
          <mxGeometry width="50" height="50" relative="1" as="geometry">
            <mxPoint x="350" y="560" as="sourcePoint" />
            <mxPoint x="400" y="510" as="targetPoint" />
          </mxGeometry>
        </mxCell>
        <mxCell id="U_qrTc23MfGuJ5eS-XRB-24" value="[1, 1, 2]" style="whiteSpace=wrap;html=1;" vertex="1" parent="U_qrTc23MfGuJ5eS-XRB-1">
          <mxGeometry x="150" y="569" width="60" height="30" as="geometry" />
        </mxCell>
        <mxCell id="U_qrTc23MfGuJ5eS-XRB-25" value="[1, 2, 1]" style="whiteSpace=wrap;html=1;" vertex="1" parent="U_qrTc23MfGuJ5eS-XRB-1">
          <mxGeometry x="290" y="569" width="60" height="30" as="geometry" />
        </mxCell>
        <mxCell id="U_qrTc23MfGuJ5eS-XRB-26" value="" style="endArrow=none;html=1;exitX=0.5;exitY=0;exitDx=0;exitDy=0;entryX=0.5;entryY=1;entryDx=0;entryDy=0;" edge="1" parent="U_qrTc23MfGuJ5eS-XRB-1" source="U_qrTc23MfGuJ5eS-XRB-24" target="U_qrTc23MfGuJ5eS-XRB-20">
          <mxGeometry width="50" height="50" relative="1" as="geometry">
            <mxPoint x="350" y="560" as="sourcePoint" />
            <mxPoint x="400" y="510" as="targetPoint" />
          </mxGeometry>
        </mxCell>
        <mxCell id="U_qrTc23MfGuJ5eS-XRB-27" value="" style="endArrow=none;html=1;exitX=0.5;exitY=0;exitDx=0;exitDy=0;" edge="1" parent="U_qrTc23MfGuJ5eS-XRB-1" source="U_qrTc23MfGuJ5eS-XRB-25" target="U_qrTc23MfGuJ5eS-XRB-21">
          <mxGeometry width="50" height="50" relative="1" as="geometry">
            <mxPoint x="350" y="560" as="sourcePoint" />
            <mxPoint x="400" y="510" as="targetPoint" />
          </mxGeometry>
        </mxCell>
        <mxCell id="U_qrTc23MfGuJ5eS-XRB-28" value="[2, 1]" style="whiteSpace=wrap;html=1;" vertex="1" parent="U_qrTc23MfGuJ5eS-XRB-1">
          <mxGeometry x="590" y="480" width="60" height="30" as="geometry" />
        </mxCell>
        <mxCell id="U_qrTc23MfGuJ5eS-XRB-29" value="" style="endArrow=none;html=1;exitX=0.5;exitY=0;exitDx=0;exitDy=0;entryX=0.5;entryY=1;entryDx=0;entryDy=0;" edge="1" parent="U_qrTc23MfGuJ5eS-XRB-1" source="U_qrTc23MfGuJ5eS-XRB-28" target="U_qrTc23MfGuJ5eS-XRB-13">
          <mxGeometry width="50" height="50" relative="1" as="geometry">
            <mxPoint x="350" y="560" as="sourcePoint" />
            <mxPoint x="400" y="510" as="targetPoint" />
          </mxGeometry>
        </mxCell>
        <mxCell id="U_qrTc23MfGuJ5eS-XRB-30" value="[2, 1, 1]" style="whiteSpace=wrap;html=1;" vertex="1" parent="U_qrTc23MfGuJ5eS-XRB-1">
          <mxGeometry x="590" y="569" width="60" height="30" as="geometry" />
        </mxCell>
        <mxCell id="U_qrTc23MfGuJ5eS-XRB-31" value="" style="endArrow=none;html=1;exitX=0.5;exitY=0;exitDx=0;exitDy=0;" edge="1" parent="U_qrTc23MfGuJ5eS-XRB-1">
          <mxGeometry width="50" height="50" relative="1" as="geometry">
            <mxPoint x="620.0000000000002" y="569" as="sourcePoint" />
            <mxPoint x="620.0000000000002" y="510" as="targetPoint" />
          </mxGeometry>
        </mxCell>
      </root>
    </mxGraphModel>
  </diagram>
</mxfile>
